<svg width="480" height="1046" viewBox="0 0 480 1046" fill="none" xmlns="http://www.w3.org/2000/svg">
<g clip-path="url(#clip0_252_3026)">
<path opacity="0.27" d="M-0.830078 1043.37C102.67 1031.8 213.265 1055.24 300.402 857.66C355.445 732.89 520.312 568.51 464.058 350.31C446.905 283.74 357.776 191.58 305.426 138.22C193.71 24.36 108.424 5.67001 -0.830078 0.26001V1043.37Z" fill="url(#paint0_linear_252_3026)"/>
<path opacity="0.27" d="M194.92 559.54C224.304 559.54 253.027 550.833 277.459 534.522C301.89 518.21 320.932 495.025 332.176 467.899C343.421 440.774 346.363 410.925 340.63 382.129C334.898 353.332 320.749 326.881 299.971 306.12C279.194 285.359 252.723 271.22 223.904 265.492C195.085 259.764 165.214 262.704 138.067 273.94C110.921 285.176 87.7181 304.203 71.3936 328.616C55.0691 353.028 46.356 381.729 46.356 411.09C46.3546 430.585 50.1965 449.889 57.6621 467.901C65.1277 485.912 76.0708 502.278 89.8666 516.063C103.662 529.848 120.04 540.783 138.066 548.243C156.091 555.702 175.41 559.541 194.92 559.54ZM195.801 327.85C211.755 327.85 227.35 332.577 240.615 341.434C253.879 350.29 264.218 362.878 270.323 377.606C276.428 392.333 278.026 408.539 274.913 424.174C271.801 439.809 264.119 454.171 252.838 465.443C241.557 476.715 227.184 484.391 211.538 487.501C195.891 490.611 179.672 489.015 164.933 482.915C150.194 476.814 137.596 466.484 128.733 453.229C119.87 439.974 115.139 424.391 115.139 408.45C115.142 387.074 123.641 366.575 138.767 351.46C153.894 336.345 174.409 327.853 195.801 327.85Z" fill="url(#paint1_linear_252_3026)"/>
<path opacity="0.27" d="M434.335 122.59L388.96 167.93L434.335 213.26L479.7 167.93L434.335 122.59ZM406.624 167.93L434.335 140.24L462.036 167.93L434.335 195.61L406.624 167.93Z" fill="url(#paint2_linear_252_3026)"/>
<g opacity="0.4">
<path opacity="0.4" d="M369.405 827.73L351.901 826.38L349.93 809.81L333.377 807.84L331.415 791.31L314.863 789.34L312.901 772.81L296.358 770.85L294.387 754.31L277.844 752.35L275.873 735.81L259.33 733.85L257.158 715.64L259.41 715.38L261.361 731.81L277.914 733.77L279.876 750.31L296.429 752.27L298.39 768.81L314.943 770.77L316.904 787.31L333.457 789.27L335.419 805.81L351.971 807.77L353.923 824.27L369.585 825.47L369.405 827.73Z" fill="url(#paint3_linear_252_3026)"/>
<path opacity="0.4" d="M383.465 813.68L365.962 812.33L363.99 795.76L347.438 793.79L345.476 777.26L328.923 775.29L326.962 758.76L310.419 756.8L308.447 740.26L291.905 738.3L289.933 721.76L273.38 719.8L271.219 701.59L273.47 701.33L275.422 717.76L291.975 719.73L293.936 736.26L310.489 738.23L312.451 754.76L329.003 756.73L330.965 773.26L347.518 775.22L349.479 791.76L366.022 793.72L367.983 810.22L383.645 811.42L383.465 813.68Z" fill="url(#paint4_linear_252_3026)"/>
<path opacity="0.4" d="M355.354 841.77L337.84 840.43L335.869 823.86L319.316 821.89L317.354 805.36L300.802 803.39L298.84 786.86L282.297 784.89L280.326 768.36L263.783 766.39L261.812 749.86L245.269 747.89L243.097 729.69L245.349 729.42L247.31 745.86L263.853 747.82L265.825 764.36L282.367 766.32L284.339 782.86L300.882 784.82L302.843 801.36L319.396 803.32L321.357 819.85L337.91 821.82L339.872 838.32L355.524 839.52L355.354 841.77Z" fill="url(#paint5_linear_252_3026)"/>
</g>
</g>
<defs>
<linearGradient id="paint0_linear_252_3026" x1="203.017" y1="1536.17" x2="243.176" y2="-0.951653" gradientUnits="userSpaceOnUse">
<stop offset="0.52" stop-color="#00C2FF"/>
<stop offset="0.78" stop-color="#00E2CE"/>
<stop offset="1" stop-color="#00FAA8"/>
</linearGradient>
<linearGradient id="paint1_linear_252_3026" x1="343.485" y1="411.09" x2="46.366" y2="411.09" gradientUnits="userSpaceOnUse">
<stop stop-color="#00C2FF"/>
<stop offset="0.54" stop-color="#00E2CE"/>
<stop offset="1" stop-color="#00FAA8"/>
</linearGradient>
<linearGradient id="paint2_linear_252_3026" x1="31791.3" y1="7982.77" x2="49590" y2="24439.5" gradientUnits="userSpaceOnUse">
<stop stop-color="#00C2FF"/>
<stop offset="0.54" stop-color="#00E2CE"/>
<stop offset="1" stop-color="#00FAA8"/>
</linearGradient>
<linearGradient id="paint3_linear_252_3026" x1="31773.7" y1="84823.9" x2="65074.7" y2="114381" gradientUnits="userSpaceOnUse">
<stop stop-color="#00C2FF"/>
<stop offset="0.54" stop-color="#00E2CE"/>
<stop offset="1" stop-color="#00FAA8"/>
</linearGradient>
<linearGradient id="paint4_linear_252_3026" x1="33267.3" y1="83142.6" x2="66568.3" y2="112700" gradientUnits="userSpaceOnUse">
<stop stop-color="#00C2FF"/>
<stop offset="0.54" stop-color="#00E2CE"/>
<stop offset="1" stop-color="#00FAA8"/>
</linearGradient>
<linearGradient id="paint5_linear_252_3026" x1="30280.1" y1="86504.2" x2="63581.1" y2="116062" gradientUnits="userSpaceOnUse">
<stop stop-color="#00C2FF"/>
<stop offset="0.54" stop-color="#00E2CE"/>
<stop offset="1" stop-color="#00FAA8"/>
</linearGradient>
<clipPath id="clip0_252_3026">
<rect width="480" height="1046" fill="white"/>
</clipPath>
</defs>
</svg>
