<svg width="460" height="1046" viewBox="0 0 460 1046" fill="none" xmlns="http://www.w3.org/2000/svg">
<path opacity="0.27" d="M459.79 0.290039C376.57 65.84 210.13 147.38 92.5302 310.71C50.5302 369.06 -105.91 631.45 117.09 860.48C198.86 944.48 350.62 1037.99 459.79 1043.4V0.290039Z" fill="url(#paint0_linear_252_3011)"/>
<path opacity="0.27" d="M76.9 895.36C70.9919 895.358 65.2158 897.108 60.3024 900.389C55.389 903.67 51.5589 908.334 49.2966 913.792C47.0343 919.25 46.4413 925.256 47.5928 931.051C48.7442 936.846 51.5882 942.169 55.7652 946.348C59.9422 950.526 65.2645 953.372 71.059 954.525C76.8535 955.679 82.8599 955.088 88.3185 952.827C93.7771 950.567 98.4427 946.738 101.725 941.826C105.008 936.913 106.76 931.138 106.76 925.23C106.761 921.308 105.99 917.424 104.49 913.8C102.99 910.176 100.791 906.883 98.0178 904.109C95.2449 901.335 91.9527 899.135 88.3293 897.634C84.7058 896.133 80.8221 895.36 76.9 895.36ZM76.73 940.91C73.5216 940.912 70.3846 939.962 67.716 938.181C65.0473 936.4 62.9668 933.868 61.7376 930.904C60.5084 927.94 60.1858 924.679 60.8105 921.532C61.4352 918.385 62.9792 915.494 65.2472 913.224C67.5152 910.955 70.4053 909.409 73.552 908.782C76.6986 908.156 79.9604 908.476 82.9248 909.704C85.8892 910.931 88.4231 913.01 90.2058 915.677C91.9885 918.345 92.94 921.481 92.94 924.69C92.94 928.99 91.2325 933.114 88.1928 936.156C85.1532 939.197 81.0301 940.907 76.73 940.91Z" fill="url(#paint1_linear_252_3011)"/>
<path opacity="0.27" d="M400.29 319.13C400.29 296.175 393.483 273.736 380.729 254.651C367.975 235.565 349.847 220.691 328.639 211.909C307.431 203.127 284.094 200.832 261.581 205.314C239.068 209.795 218.39 220.853 202.163 237.088C185.935 253.323 174.886 274.006 170.414 296.52C165.942 319.035 168.247 342.371 177.038 363.575C185.829 384.78 200.712 402.901 219.802 415.646C238.893 428.392 261.335 435.19 284.29 435.18C299.528 435.18 314.616 432.178 328.693 426.345C342.77 420.513 355.56 411.964 366.332 401.187C377.104 390.41 385.648 377.616 391.474 363.537C397.301 349.457 400.297 334.368 400.29 319.13ZM219.17 318.44C219.17 305.98 222.865 293.799 229.787 283.439C236.71 273.079 246.549 265.004 258.061 260.236C269.573 255.467 282.24 254.22 294.461 256.651C306.682 259.081 317.907 265.082 326.718 273.892C335.528 282.703 341.529 293.929 343.959 306.149C346.39 318.37 345.143 331.037 340.374 342.549C335.606 354.061 327.531 363.9 317.171 370.823C306.811 377.745 294.63 381.44 282.17 381.44C265.461 381.44 249.437 374.803 237.622 362.988C225.807 351.173 219.17 335.149 219.17 318.44Z" fill="url(#paint2_linear_252_3011)"/>
<g opacity="0.4">
<path opacity="0.4" d="M299.98 907.61L282.48 906.27L280.51 889.7L263.98 887.73L262.01 871.2L245.48 869.23L243.52 852.7L226.98 850.73L225.02 834.2L208.48 832.23L206.52 815.7L189.98 813.73L187.82 795.53L190.07 795.26L192.02 811.69L208.56 813.66L210.52 830.2L227.06 832.16L229.02 848.7L245.56 850.66L247.52 867.19L264.05 869.16L266.02 885.69L282.55 887.66L284.51 904.15L300.16 905.36L299.98 907.61Z" fill="url(#paint3_linear_252_3011)"/>
<path opacity="0.4" d="M314.03 893.57L296.53 892.22L294.56 875.65L278.03 873.68L276.06 857.15L259.53 855.18L257.56 838.65L241.03 836.68L239.07 820.15L222.53 818.19L220.57 801.65L204.03 799.68L201.87 781.48L204.12 781.21L206.07 797.65L222.6 799.61L224.57 816.15L241.1 818.11L243.07 834.65L259.6 836.61L261.57 853.14L278.1 855.11L280.07 871.64L296.6 873.61L298.56 890.11L314.2 891.31L314.03 893.57Z" fill="url(#paint4_linear_252_3011)"/>
<path opacity="0.4" d="M285.93 921.66L268.43 920.32L266.47 903.74L249.93 901.78L247.97 885.25L231.43 883.28L229.47 866.75L212.93 864.78L210.97 848.25L194.43 846.28L192.47 829.75L175.93 827.78L173.77 809.58L176.02 809.31L177.97 825.74L194.51 827.71L196.47 844.24L213.01 846.21L214.97 862.74L231.51 864.71L233.47 881.24L250 883.21L251.97 899.74L268.5 901.71L270.46 918.2L286.11 919.4L285.93 921.66Z" fill="url(#paint5_linear_252_3011)"/>
</g>
<g opacity="0.4">
<path opacity="0.4" d="M61.5602 368.23L63.5602 384.77L80.0902 386.77L82.0902 403.31L98.6202 405.31L100.62 421.85L117.15 423.85L119.15 440.42L136.64 441.77L136.82 439.51L121.18 438.31L119.18 421.81L102.64 419.81L100.64 403.27L84.1002 401.27L82.1002 384.74L65.5702 382.74L63.5702 366.21L59.0702 365.67C58.6802 366.38 58.2902 367.09 57.9102 367.81L61.5602 368.23Z" fill="url(#paint6_linear_252_3011)"/>
<path opacity="0.4" d="M75.6098 354.19L77.6098 370.72L94.1398 372.72L96.1398 389.26L112.67 391.26L114.67 407.8L131.21 409.8L133.21 426.37L150.7 427.72L150.88 425.46L135.24 424.26L133.24 407.76L116.7 405.76L114.7 389.23L98.1599 387.23L96.1599 370.7L79.6199 368.7L77.6199 352.17L67.2999 350.94L66.0898 353.08L75.6098 354.19Z" fill="url(#paint7_linear_252_3011)"/>
<path opacity="0.4" d="M49.4799 398.82L66.0099 400.82L68.0099 417.36L84.5399 419.36L86.5399 435.89L103.07 437.89L105.07 454.46L122.57 455.81L122.74 453.55L107 452.24L105 435.74L88.4699 433.74L86.4699 417.2L69.9399 415.2L67.9399 398.66L51.4099 396.66L49.7799 382.99C49.1599 384.23 48.5399 385.46 47.9399 386.68L49.4799 398.82Z" fill="url(#paint8_linear_252_3011)"/>
</g>
<defs>
<linearGradient id="paint0_linear_252_3011" x1="226.98" y1="16.9" x2="237.02" y2="974.67" gradientUnits="userSpaceOnUse">
<stop offset="0.52" stop-color="#00C2FF"/>
<stop offset="0.78" stop-color="#00E2CE"/>
<stop offset="1" stop-color="#00FAA8"/>
</linearGradient>
<linearGradient id="paint1_linear_252_3011" x1="6.50003" y1="816.83" x2="131.68" y2="1009.56" gradientUnits="userSpaceOnUse">
<stop stop-color="#00C2FF"/>
<stop offset="0.54" stop-color="#00E2CE"/>
<stop offset="1" stop-color="#00FAA8"/>
</linearGradient>
<linearGradient id="paint2_linear_252_3011" x1="-1.00218e+06" y1="269917" x2="-1.00218e+06" y2="323788" gradientUnits="userSpaceOnUse">
<stop stop-color="#00C2FF"/>
<stop offset="0.54" stop-color="#00E2CE"/>
<stop offset="1" stop-color="#00FAA8"/>
</linearGradient>
<linearGradient id="paint3_linear_252_3011" x1="26815.8" y1="96291.6" x2="42540.5" y2="114981" gradientUnits="userSpaceOnUse">
<stop stop-color="#00C2FF"/>
<stop offset="0.54" stop-color="#00E2CE"/>
<stop offset="1" stop-color="#00FAA8"/>
</linearGradient>
<linearGradient id="paint4_linear_252_3011" x1="28529.3" y1="94854.6" x2="44254.8" y2="113543" gradientUnits="userSpaceOnUse">
<stop stop-color="#00C2FF"/>
<stop offset="0.54" stop-color="#00E2CE"/>
<stop offset="1" stop-color="#00FAA8"/>
</linearGradient>
<linearGradient id="paint5_linear_252_3011" x1="25100.9" y1="97738.1" x2="40824.5" y2="116427" gradientUnits="userSpaceOnUse">
<stop stop-color="#00C2FF"/>
<stop offset="0.54" stop-color="#00E2CE"/>
<stop offset="1" stop-color="#00FAA8"/>
</linearGradient>
<linearGradient id="paint6_linear_252_3011" x1="5999.83" y1="29480" x2="16577.4" y2="42518" gradientUnits="userSpaceOnUse">
<stop stop-color="#00C2FF"/>
<stop offset="0.54" stop-color="#00E2CE"/>
<stop offset="1" stop-color="#00FAA8"/>
</linearGradient>
<linearGradient id="paint7_linear_252_3011" x1="7735.35" y1="28747.3" x2="18250" y2="42550.1" gradientUnits="userSpaceOnUse">
<stop stop-color="#00C2FF"/>
<stop offset="0.54" stop-color="#00E2CE"/>
<stop offset="1" stop-color="#00FAA8"/>
</linearGradient>
<linearGradient id="paint8_linear_252_3011" x1="4547.16" y1="29170.2" x2="14688.8" y2="41553.3" gradientUnits="userSpaceOnUse">
<stop stop-color="#00C2FF"/>
<stop offset="0.54" stop-color="#00E2CE"/>
<stop offset="1" stop-color="#00FAA8"/>
</linearGradient>
</defs>
</svg>
